<?xml version="1.0" encoding="utf-8"?>
<!-- Generator: Adobe Illustrator 16.0.0, SVG Export Plug-In . SVG Version: 6.00 Build 0)  -->
<!DOCTYPE svg PUBLIC "-//W3C//DTD SVG 1.1//EN" "http://www.w3.org/Graphics/SVG/1.1/DTD/svg11.dtd">
<svg version="1.1" id="Layer_1" xmlns="http://www.w3.org/2000/svg" xmlns:xlink="http://www.w3.org/1999/xlink" x="0px" y="0px"
	 width="30px" height="24px" viewBox="0 0 30 24" enable-background="new 0 0 30 24" xml:space="preserve">
<g>
	<rect y="20" fill="#424242" width="2" height="2"/>
	<rect x="8" y="20" fill="#424242" width="22" height="2"/>
	<rect y="2" fill="#424242" width="5" height="2"/>
	<rect x="11" y="2" fill="#424242" width="19" height="2"/>
	<rect y="11" fill="#424242" width="20" height="2"/>
	<rect x="26" y="11" fill="#424242" width="4" height="2"/>
	<g>
		<path fill="#424242" d="M5,24c-1.654,0-3-1.346-3-3s1.346-3,3-3s3,1.346,3,3S6.654,24,5,24z M5,19c-1.103,0-2,0.897-2,2
			s0.897,2,2,2s2-0.897,2-2S6.103,19,5,19z"/>
	</g>
	<g>
		<path fill="#424242" d="M8,6C6.346,6,5,4.654,5,3s1.346-3,3-3s3,1.346,3,3S9.654,6,8,6z M8,1C6.897,1,6,1.897,6,3s0.897,2,2,2
			s2-0.897,2-2S9.103,1,8,1z"/>
	</g>
	<g>
		<path fill="#424242" d="M23,15c-1.654,0-3-1.346-3-3s1.346-3,3-3s3,1.346,3,3S24.654,15,23,15z M23,10c-1.103,0-2,0.897-2,2
			s0.897,2,2,2s2-0.897,2-2S24.103,10,23,10z"/>
	</g>
</g>
</svg>
