<?xml version="1.0" encoding="utf-8"?>
<!-- Generator: Adobe Illustrator 16.0.0, SVG Export Plug-In . SVG Version: 6.00 Build 0)  -->
<!DOCTYPE svg PUBLIC "-//W3C//DTD SVG 1.1//EN" "http://www.w3.org/Graphics/SVG/1.1/DTD/svg11.dtd">
<svg version="1.1" id="Layer_1" xmlns="http://www.w3.org/2000/svg" xmlns:xlink="http://www.w3.org/1999/xlink" x="0px" y="0px"
	 width="20px" height="20px" viewBox="0 0 20 20" enable-background="new 0 0 20 20" xml:space="preserve">
<g>
	<path fill="#9E9E9E" d="M9.999,1.802c2.671,0,2.987,0.01,4.041,0.058c0.976,0.044,1.505,0.208,1.857,0.344
		c0.467,0.182,0.8,0.398,1.149,0.748c0.35,0.35,0.566,0.683,0.748,1.15c0.137,0.353,0.3,0.882,0.345,1.857
		C18.188,7.014,18.197,7.33,18.197,10c0,2.67-0.01,2.987-0.058,4.041c-0.045,0.975-0.208,1.504-0.345,1.857
		c-0.182,0.467-0.398,0.8-0.748,1.15c-0.35,0.35-0.683,0.566-1.149,0.748c-0.353,0.137-0.882,0.3-1.857,0.344
		c-1.054,0.048-1.37,0.058-4.041,0.058c-2.67,0-2.986-0.01-4.04-0.058c-0.976-0.044-1.505-0.208-1.857-0.344
		c-0.467-0.182-0.8-0.398-1.149-0.748c-0.351-0.35-0.566-0.683-0.748-1.15c-0.137-0.353-0.3-0.882-0.345-1.857
		C1.812,12.987,1.802,12.67,1.802,10c0-2.67,0.01-2.986,0.058-4.041c0.045-0.975,0.208-1.504,0.345-1.857
		c0.182-0.467,0.397-0.8,0.748-1.15c0.35-0.35,0.683-0.566,1.149-0.748c0.353-0.137,0.882-0.3,1.857-0.344
		C7.013,1.812,7.329,1.802,9.999,1.802 M9.999,0C7.283,0,6.943,0.012,5.877,0.061C4.812,0.109,4.085,0.278,3.449,0.525
		C2.792,0.781,2.233,1.123,1.678,1.679C1.122,2.234,0.78,2.792,0.524,3.45C0.277,4.086,0.108,4.813,0.06,5.877
		C0.011,6.944,0,7.284,0,10c0,2.716,0.011,3.057,0.06,4.123c0.049,1.064,0.218,1.792,0.465,2.428
		c0.256,0.657,0.598,1.215,1.153,1.771c0.556,0.556,1.114,0.898,1.771,1.153c0.636,0.248,1.363,0.417,2.428,0.465
		C6.943,19.989,7.283,20,9.999,20c2.717,0,3.057-0.011,4.123-0.06c1.064-0.048,1.792-0.217,2.428-0.465
		c0.657-0.255,1.216-0.597,1.771-1.153c0.556-0.556,0.897-1.114,1.153-1.771c0.247-0.636,0.416-1.363,0.465-2.428
		c0.049-1.066,0.06-1.407,0.06-4.123c0-2.716-0.011-3.056-0.06-4.123c-0.049-1.064-0.218-1.792-0.465-2.428
		c-0.256-0.657-0.598-1.215-1.153-1.771c-0.556-0.556-1.114-0.898-1.771-1.153c-0.636-0.248-1.363-0.417-2.428-0.465
		C13.056,0.012,12.716,0,9.999,0L9.999,0z"/>
	<path fill="#9E9E9E" d="M9.999,4.865c-2.836,0-5.135,2.299-5.135,5.135c0,2.836,2.299,5.135,5.135,5.135
		c2.837,0,5.136-2.299,5.136-5.135C15.135,7.164,12.836,4.865,9.999,4.865z M9.999,13.333c-1.841,0-3.333-1.492-3.333-3.333
		c0-1.841,1.492-3.333,3.333-3.333c1.842,0,3.334,1.492,3.334,3.333C13.333,11.841,11.841,13.333,9.999,13.333z"/>
	<circle fill="#9E9E9E" cx="15.337" cy="4.662" r="1.2"/>
</g>
</svg>
