<?xml version="1.0" encoding="utf-8"?>
<!-- Generator: Adobe Illustrator 16.0.0, SVG Export Plug-In . SVG Version: 6.00 Build 0)  -->
<!DOCTYPE svg PUBLIC "-//W3C//DTD SVG 1.1//EN" "http://www.w3.org/Graphics/SVG/1.1/DTD/svg11.dtd">
<svg version="1.1" id="Layer_1" xmlns="http://www.w3.org/2000/svg" xmlns:xlink="http://www.w3.org/1999/xlink" x="0px" y="0px"
	 width="20px" height="20px" viewBox="0 0 20 20" enable-background="new 0 0 20 20" xml:space="preserve">
<path fill="#9E9E9E" d="M20,3.924c-0.736,0.328-1.525,0.547-2.355,0.646c0.846-0.508,1.496-1.312,1.803-2.27
	c-0.793,0.47-1.672,0.812-2.605,0.996C16.094,2.498,15.027,2,13.848,2C11.58,2,9.744,3.837,9.744,6.104
	c0,0.321,0.035,0.635,0.105,0.936c-3.41-0.172-6.434-1.806-8.459-4.287c-0.352,0.605-0.553,1.31-0.553,2.062
	c0,1.425,0.723,2.68,1.824,3.416C1.99,8.209,1.357,8.023,0.803,7.715c0,0.018,0,0.035,0,0.053c0,1.988,1.414,3.646,3.291,4.023
	c-0.344,0.094-0.705,0.143-1.08,0.143c-0.266,0-0.521-0.023-0.773-0.072c0.523,1.631,2.039,2.816,3.834,2.85
	c-1.404,1.1-3.174,1.757-5.096,1.757c-0.332,0-0.658-0.02-0.979-0.058c1.816,1.164,3.973,1.844,6.289,1.844
	c7.549,0,11.674-6.252,11.674-11.675c0-0.177-0.002-0.355-0.01-0.531C18.754,5.469,19.451,4.746,20,3.924z"/>
</svg>
