<?xml version="1.0" encoding="utf-8"?>
<!-- Generator: Adobe Illustrator 16.0.0, SVG Export Plug-In . SVG Version: 6.00 Build 0)  -->
<!DOCTYPE svg PUBLIC "-//W3C//DTD SVG 1.1//EN" "http://www.w3.org/Graphics/SVG/1.1/DTD/svg11.dtd">
<svg version="1.1" id="Layer_1" xmlns="http://www.w3.org/2000/svg" xmlns:xlink="http://www.w3.org/1999/xlink" x="0px" y="0px"
	 width="181px" height="32px" viewBox="0 0 181 32" enable-background="new 0 0 181 32" xml:space="preserve">
<g id="logo_17_">
	<g>
		<defs>
			<polygon id="SVGID_630_" points="0,20.082 0,21 3,21 3,20.082 3,15.922 3,15 0,15 0,15.922 			"/>
		</defs>
		<use xlink:href="#SVGID_630_"  overflow="visible" fill-rule="evenodd" clip-rule="evenodd" fill="#2196F3"/>
		<clipPath id="SVGID_2_">
			<use xlink:href="#SVGID_630_"  overflow="visible"/>
		</clipPath>
	</g>
	<g>
		<defs>
			<polygon id="SVGID_632_" points="13,23 13,24 16,24 16,23 16,13.438 16,12 13,12 13,13.438 			"/>
		</defs>
		<use xlink:href="#SVGID_632_"  overflow="visible" fill-rule="evenodd" clip-rule="evenodd" fill="#338FE3"/>
		<clipPath id="SVGID_3_">
			<use xlink:href="#SVGID_632_"  overflow="visible"/>
		</clipPath>
	</g>
	<g>
		<defs>
			<polygon id="SVGID_634_" points="26,25 26,26 29,26 29,25 29,11 29,10 26,10 26,11 			"/>
		</defs>
		<use xlink:href="#SVGID_634_"  overflow="visible" fill-rule="evenodd" clip-rule="evenodd" fill="#418AD7"/>
		<clipPath id="SVGID_5_">
			<use xlink:href="#SVGID_634_"  overflow="visible"/>
		</clipPath>
	</g>
	<g>
		<defs>
			<polygon id="SVGID_636_" points="49,10 46,10 46,11 46,23 42,23 42,11 42,10 39,10 39,11 39,24 39,25 39,26 41,26 47.395,26 
				49,26 49,24 49,11 			"/>
		</defs>
		<use xlink:href="#SVGID_636_"  overflow="visible" fill-rule="evenodd" clip-rule="evenodd" fill="#5582C5"/>
		<clipPath id="SVGID_6_">
			<use xlink:href="#SVGID_636_"  overflow="visible"/>
		</clipPath>
	</g>
	<g>
		<defs>
			<polygon id="SVGID_638_" points="67,26 62,26 62,6 62,5 59,5 59,6 59,26 59,27 59,28 59,29 67,29 67,28 67,27 			"/>
		</defs>
		<use xlink:href="#SVGID_638_"  overflow="visible" fill-rule="evenodd" clip-rule="evenodd" fill="#677AB4"/>
		<clipPath id="SVGID_8_">
			<use xlink:href="#SVGID_638_"  overflow="visible"/>
		</clipPath>
	</g>
	<g>
		<defs>
			<polygon id="SVGID_640_" points="82,8 79,8 79,1 79,0 76,0 76,1 76,8 73,8 73,9 73,10 73,11 76,11 76,31 76,32 79,32 79,31 
				79,11 82,11 82,10 82,9 			"/>
		</defs>
		<use xlink:href="#SVGID_640_"  overflow="visible" fill-rule="evenodd" clip-rule="evenodd" fill="#7D72A1"/>
		<clipPath id="SVGID_9_">
			<use xlink:href="#SVGID_640_"  overflow="visible"/>
		</clipPath>
	</g>
	<g>
		<defs>
			<path id="SVGID_642_" d="M91,28.045V29h3v-0.955c0,0,0-16.133,0-16.089S94.055,11,94,11s-3,0-3,0v0.956V28.045z"/>
		</defs>
		<use xlink:href="#SVGID_642_"  overflow="visible" fill-rule="evenodd" clip-rule="evenodd" fill="#8E6B92"/>
		<clipPath id="SVGID_11_">
			<use xlink:href="#SVGID_642_"  overflow="visible"/>
		</clipPath>
	</g>
	<g>
		<defs>
			<path id="SVGID_644_" d="M91,7.236V8h3V7.236c0,0,0-1.457,0-1.472S94,5,94,5h-3v0.765V7.236z"/>
		</defs>
		<use xlink:href="#SVGID_644_"  overflow="visible" fill-rule="evenodd" clip-rule="evenodd" fill="#8E6B92"/>
		<clipPath id="SVGID_12_">
			<use xlink:href="#SVGID_644_"  overflow="visible"/>
		</clipPath>
	</g>
	<g>
		<defs>
			<polygon id="SVGID_646_" points="121,10 104,10 104,11 104,12 104,13 104,24 104,26 107,26 107,25 107,13 111,13 111,25 111,26 
				114,26 114,25 114,13 118,13 118,25 118,26 121,26 121,25 121,11 			"/>
		</defs>
		<use xlink:href="#SVGID_646_"  overflow="visible" fill-rule="evenodd" clip-rule="evenodd" fill="#A5627C"/>
		<clipPath id="SVGID_14_">
			<use xlink:href="#SVGID_646_"  overflow="visible"/>
		</clipPath>
	</g>
	<g>
		<defs>
			<path id="SVGID_648_" d="M142,11.043c0,0,0-0.09,0-0.066S142.045,10,142,10s-10,0-10,0h-1v0.977v13.984V26h3v-0.952V19h5v6.048
				V26h3v-0.977V11.043z M134,16v-3.034h5V16H134z"/>
		</defs>
		<use xlink:href="#SVGID_648_"  overflow="visible" fill-rule="evenodd" clip-rule="evenodd" fill="#C25764"/>
		<clipPath id="SVGID_15_">
			<use xlink:href="#SVGID_648_"  overflow="visible"/>
		</clipPath>
	</g>
	<g>
		<defs>
			<path id="SVGID_650_" d="M152,25.018C152,25,152,26,152,26h3v-0.982V10.979V10h-3v0.979C152,10.979,152,25.035,152,25.018z"/>
		</defs>
		<use xlink:href="#SVGID_650_"  overflow="visible" fill-rule="evenodd" clip-rule="evenodd" fill="#D54F52"/>
		<clipPath id="SVGID_17_">
			<use xlink:href="#SVGID_650_"  overflow="visible"/>
		</clipPath>
	</g>
	<g>
		<defs>
			<path id="SVGID_652_" d="M178,20.081V21h2.976v-0.919V15.92c0,0,0.056-0.92,0-0.92S178,15,178,15s0,0.84,0,0.92
				S178,20.081,178,20.081z"/>
		</defs>
		<use xlink:href="#SVGID_652_"  overflow="visible" fill-rule="evenodd" clip-rule="evenodd" fill="#F44336"/>
		<clipPath id="SVGID_18_">
			<use xlink:href="#SVGID_652_"  overflow="visible"/>
		</clipPath>
	</g>
	<g>
		<defs>
			<polygon id="SVGID_654_" points="165,22 165,24 168,24 168,22 168,12 167,12 165,12 165,15 			"/>
		</defs>
		<use xlink:href="#SVGID_654_"  overflow="visible" fill-rule="evenodd" clip-rule="evenodd" fill="#E44944"/>
		<clipPath id="SVGID_20_">
			<use xlink:href="#SVGID_654_"  overflow="visible"/>
		</clipPath>
	</g>
</g>
</svg>
