<?xml version="1.0" encoding="utf-8"?>
<!-- Generator: Adobe Illustrator 16.0.0, SVG Export Plug-In . SVG Version: 6.00 Build 0)  -->
<!DOCTYPE svg PUBLIC "-//W3C//DTD SVG 1.1//EN" "http://www.w3.org/Graphics/SVG/1.1/DTD/svg11.dtd">
<svg version="1.1" id="Layer_1" xmlns="http://www.w3.org/2000/svg" xmlns:xlink="http://www.w3.org/1999/xlink" x="0px" y="0px"
	 width="20px" height="20px" viewBox="0 0 20 20" enable-background="new 0 0 20 20" xml:space="preserve">
<path fill-rule="evenodd" clip-rule="evenodd" fill="#9E9E9E" d="M9.412,16.297h1.195c0,0,0.36-0.039,0.543-0.234
	c0.17-0.179,0.165-0.514,0.165-0.514s-0.024-1.577,0.722-1.808c0.732-0.229,1.675,1.521,2.675,2.194c0.756,0.51,1.328,0.4,1.328,0.4
	l2.671-0.039c0,0,1.398-0.085,0.735-1.163c-0.056-0.089-0.387-0.798-1.985-2.256c-1.676-1.525-1.452-1.278,0.566-3.919
	c1.229-1.606,1.718-2.589,1.566-3.01c-0.147-0.399-1.052-0.294-1.052-0.294l-3.004,0.019c0,0-0.226-0.03-0.39,0.066
	c-0.162,0.096-0.267,0.317-0.267,0.317s-0.476,1.243-1.108,2.302c-1.34,2.232-1.877,2.352-2.096,2.211
	c-0.508-0.321-0.38-1.298-0.38-1.989c0-2.163,0.334-3.065-0.65-3.299c-0.326-0.078-0.567-0.129-1.403-0.138
	C8.17,5.134,7.262,5.147,6.747,5.396C6.406,5.561,6.141,5.927,6.302,5.947c0.199,0.025,0.65,0.119,0.889,0.438
	c0.308,0.412,0.298,1.337,0.298,1.337s0.177,2.547-0.416,2.864c-0.403,0.216-0.961-0.227-2.151-2.252
	C4.309,7.297,3.844,6.148,3.844,6.148S3.757,5.936,3.596,5.819c-0.191-0.139-0.46-0.184-0.46-0.184l-2.858,0.02
	c0,0-0.428,0.011-0.587,0.194C-0.45,6.013-0.32,6.351-0.32,6.351s2.236,5.14,4.771,7.728C6.773,16.454,9.412,16.297,9.412,16.297
	L9.412,16.297z"/>
</svg>
